
<svg version="1.1" id="Layer_1" xmlns="http://www.w3.org/2000/svg" xmlns:xlink="http://www.w3.org/1999/xlink" x="0px" y="0px"
	 width="100%" viewBox="0 0 1020 266" enable-background="new 0 0 1020 266" xml:space="preserve">
<path fill="#FFFFFF" opacity="1.000000" stroke="none" 
	d="
M723.000000,267.000000 
	C482.000000,267.000000 241.500000,267.000000 1.000000,267.000000 
	C1.000000,178.333328 1.000000,89.666664 1.000000,1.000000 
	C341.000000,1.000000 681.000000,1.000000 1021.000000,1.000000 
	C1021.000000,89.666664 1021.000000,178.333328 1021.000000,267.000000 
	C921.833313,267.000000 822.666687,267.000000 723.000000,267.000000 
M67.999901,155.500000 
	C67.999947,171.821945 67.976921,188.143921 68.007141,204.465805 
	C68.032669,218.249374 76.701584,226.981995 90.425926,226.990646 
	C131.397522,227.016479 172.369171,227.013062 213.340790,226.992767 
	C227.389420,226.985809 235.988159,218.326996 235.994019,204.199448 
	C236.010941,163.394379 236.011169,122.589287 235.993912,81.784218 
	C235.987930,67.663475 227.384857,59.014019 213.324463,59.007111 
	C172.519394,58.987064 131.714310,58.990101 90.909241,59.005318 
	C76.520531,59.010685 68.013680,67.578751 68.004257,82.050179 
	C67.988541,106.200111 67.999924,130.350052 67.999901,155.500000 
M457.987854,163.461548 
	C457.987854,154.311172 457.987854,145.160797 457.987854,136.010422 
	C463.210785,146.841690 467.707184,157.700790 471.866577,168.687469 
	C473.047363,171.806458 474.491455,172.954834 477.934387,173.022781 
	C481.795105,173.098999 483.436554,171.642609 484.727936,168.223801 
	C488.738861,157.605179 493.079346,147.111038 497.291962,136.568604 
	C497.644135,136.644196 497.996307,136.719788 498.348480,136.795380 
	C498.348480,148.684814 498.348480,160.574265 498.348480,172.628113 
	C503.024750,172.628113 507.209137,172.628113 511.404419,172.628113 
	C511.404419,152.022797 511.404419,131.801743 511.404419,111.137436 
	C509.435333,111.137436 507.801819,111.140320 506.168335,111.136978 
	C495.055420,111.114265 495.079773,111.123795 490.831482,121.507484 
	C486.796112,131.370850 482.702423,141.210388 478.235291,152.026733 
	C477.141266,149.506912 476.473633,148.036453 475.859589,146.543930 
	C471.500580,135.949020 467.197998,125.330383 462.745178,114.775131 
	C462.168732,113.408730 460.905701,111.411774 459.837524,111.330750 
	C454.950317,110.960068 450.019226,111.167839 445.160553,111.167839 
	C445.160553,132.193466 445.160553,152.419449 445.160553,172.684784 
	C449.554321,172.684784 453.612976,172.684784 457.987854,172.684784 
	C457.987854,169.724503 457.987854,167.086533 457.987854,163.461548 
M718.184265,146.244125 
	C721.862183,147.274353 725.794434,147.805511 729.131165,149.505371 
	C731.463806,150.693680 734.928406,154.266357 734.472595,155.395111 
	C733.413330,158.018341 730.617920,160.926987 727.935669,161.718292 
	C720.682373,163.858170 716.275452,161.076950 712.355408,153.315292 
	C708.381592,153.315292 704.428711,153.315292 700.075378,153.315292 
	C699.777344,160.593765 702.140442,166.400482 708.349182,169.827499 
	C718.650146,175.513290 729.526611,175.827698 739.914246,170.418625 
	C751.945862,164.153442 751.910095,147.413010 740.074036,140.709030 
	C736.949646,138.939407 733.303772,138.065872 729.859314,136.892715 
	C726.252258,135.664200 722.420044,134.931992 719.045837,133.257980 
	C717.466614,132.474503 715.835449,129.968307 715.868408,128.274796 
	C715.901489,126.569870 717.606934,124.303833 719.213684,123.332153 
	C724.464905,120.156418 730.893372,122.166618 734.206482,127.460045 
	C734.751465,128.330780 735.757690,129.448212 736.608337,129.499741 
	C740.309143,129.723862 744.031250,129.595963 747.957581,129.595963 
	C747.164001,119.997055 742.557739,114.561424 734.461609,111.951797 
	C727.582153,109.734322 720.659180,109.966721 713.907471,112.323158 
	C704.204895,115.709473 699.043396,125.449905 702.151184,134.580597 
	C704.586121,141.734604 710.835388,144.202286 718.184265,146.244125 
M391.108887,137.543915 
	C391.108887,154.969757 391.108887,172.395599 391.108887,189.863861 
	C395.934814,189.863861 400.042358,189.863861 404.752258,189.863861 
	C404.752258,186.001556 404.752228,182.382416 404.752228,178.763260 
	C404.752228,175.266678 404.752258,171.770096 404.752258,167.154541 
	C413.301605,177.821289 429.994476,174.796631 434.544220,161.589813 
	C435.717773,158.183243 436.469727,154.460876 436.515320,150.872147 
	C436.607117,143.643784 436.002686,136.075134 430.010956,131.199493 
	C426.654694,128.468445 421.746216,126.399742 417.508057,126.346413 
	C413.236084,126.292664 408.928070,129.102554 404.662689,130.648056 
	C404.577698,130.072006 404.343414,128.483795 404.098236,126.821968 
	C399.735718,126.821968 395.660309,126.821968 391.108948,126.821968 
	C391.108948,130.305252 391.108948,133.434509 391.108887,137.543915 
M860.996765,126.071075 
	C850.500305,125.865196 843.614502,129.903961 841.328979,139.253387 
	C839.906433,145.072754 839.647888,151.496552 840.415588,157.449387 
	C841.346375,164.667480 845.398376,170.592606 852.898315,172.879745 
	C859.829041,174.993286 866.061157,173.778915 870.799683,167.751816 
	C870.885681,167.642456 871.374084,167.849457 871.632874,167.900574 
	C871.788757,169.528397 871.942322,171.131714 872.088013,172.652893 
	C876.458801,172.652893 880.532532,172.652893 884.623413,172.652893 
	C884.623413,152.064011 884.623413,131.831100 884.623413,111.141960 
	C881.839844,111.141960 879.342957,111.401154 876.920959,111.085587 
	C872.486206,110.507774 871.000122,112.166924 871.333069,116.606010 
	C871.705872,121.575928 871.418701,126.595337 871.418701,131.345856 
	C867.811829,129.398819 864.820129,127.783875 860.996765,126.071075 
M610.932678,167.607666 
	C606.964783,161.854294 603.189453,155.953735 598.950195,150.407745 
	C596.731628,147.505249 597.218750,145.673050 599.471313,143.207657 
	C604.150879,138.085953 608.548401,132.706558 613.879456,126.477928 
	C610.779236,126.477928 608.807800,126.737373 606.928650,126.430855 
	C600.463257,125.376221 595.876587,127.772957 592.299133,133.194092 
	C590.001404,136.676041 586.959290,139.666809 584.250793,142.877731 
	C583.840515,142.719788 583.430176,142.561859 583.019836,142.403915 
	C583.019836,132.065231 583.019836,121.726532 583.019836,111.455017 
	C578.400696,111.455017 574.472778,111.455017 570.372375,111.455017 
	C570.372375,132.113892 570.372375,152.462860 570.372375,172.632980 
	C574.837280,172.632980 578.916321,172.632980 582.952637,172.632980 
	C584.207520,157.600403 584.207520,157.600403 586.573730,155.314957 
	C589.961426,160.283295 593.223694,165.290207 596.755737,170.098999 
	C597.695312,171.378220 599.401428,172.741394 600.860596,172.869446 
	C605.078308,173.239624 609.349487,173.000366 614.324036,173.000366 
	C613.035767,170.957275 612.176575,169.594635 610.932678,167.607666 
M547.836853,168.740814 
	C548.018250,170.127701 548.199646,171.514587 548.351318,172.674347 
	C552.730103,172.674347 556.646179,172.674347 560.820374,172.674347 
	C560.820374,161.889984 561.128418,151.426575 560.717957,140.991425 
	C560.417114,133.340836 556.269165,128.748993 548.729858,127.089478 
	C544.894897,126.245369 540.797119,125.869316 536.895813,126.199486 
	C527.896973,126.961075 521.791687,132.631927 521.380737,140.111435 
	C526.558655,140.507858 532.000061,143.272873 536.217102,137.395996 
	C536.901367,136.442413 538.918518,136.180099 540.352295,136.083328 
	C543.613281,135.863220 546.495239,136.825256 546.982239,140.548080 
	C547.512085,144.598526 543.959045,144.318787 541.569275,144.821869 
	C537.357788,145.708527 532.970398,145.880692 528.845032,147.028915 
	C521.959412,148.945435 518.786255,153.751816 519.054993,160.774719 
	C519.310425,167.449326 522.781921,171.592087 529.751343,173.304047 
	C536.359985,174.927353 542.277344,173.729050 547.836853,168.740814 
M658.215637,140.518936 
	C656.525391,134.571594 652.944763,130.257370 647.186157,127.874962 
	C636.529053,123.465973 624.715088,126.763664 618.935730,135.729446 
	C612.962341,144.996277 614.243103,160.687134 621.555542,167.825516 
	C628.954895,175.048721 644.138977,176.138214 652.600647,169.928085 
	C656.108765,167.353409 658.804932,164.159988 658.960693,159.089691 
	C653.483032,159.625061 648.242371,156.688416 643.436157,161.930939 
	C641.842651,163.669128 636.525818,162.963531 633.330750,161.993454 
	C630.077637,161.005753 628.481873,157.771729 629.245667,153.284866 
	C639.342773,153.284866 649.360962,153.284866 659.979675,153.284866 
	C659.443848,148.762314 658.999207,145.010086 658.215637,140.518936 
M796.378418,171.283127 
	C804.937866,175.670761 812.400757,174.054382 818.866638,166.623474 
	C819.023987,168.957443 819.144531,170.745438 819.276794,172.706726 
	C823.552063,172.706726 827.606384,172.706726 831.657898,172.706726 
	C831.657898,157.215515 831.657898,142.028320 831.657898,126.796753 
	C827.230225,126.796753 823.157837,126.796753 818.584290,126.796753 
	C818.584290,129.567032 818.625793,132.027466 818.576355,134.486084 
	C818.436035,141.461807 818.572083,148.463486 817.981812,155.402390 
	C817.609680,159.777145 814.356445,162.024200 809.972351,161.941177 
	C805.598389,161.858337 803.414062,159.158905 802.970093,155.008713 
	C802.740967,152.866592 802.764282,150.692429 802.757141,148.532486 
	C802.733582,141.414902 802.748291,134.297195 802.748291,126.827881 
	C798.056213,126.827881 793.841309,126.827881 789.491333,126.827881 
	C789.491333,138.086823 788.964539,149.053192 789.777771,159.919281 
	C790.061401,163.708557 793.652893,167.250259 796.378418,171.283127 
M953.466980,130.977753 
	C944.187988,124.111610 931.098511,124.314369 922.994629,131.449631 
	C915.339966,138.189529 913.239868,153.218460 918.597656,162.916306 
	C923.598083,171.967316 934.925537,176.111343 945.953003,172.923965 
	C962.433411,168.160507 966.980957,144.791260 953.466980,130.977753 
M283.052155,111.137733 
	C277.705078,114.157166 282.016907,118.647667 280.373413,122.823914 
	C287.099670,122.823914 292.865906,122.823914 299.322754,122.823914 
	C299.322754,139.768860 299.322754,156.284164 299.322754,172.594025 
	C304.262634,172.594025 308.488464,172.594025 313.198914,172.594025 
	C313.198914,155.769501 313.198914,139.365906 313.198914,122.740715 
	C316.524292,122.740715 319.349152,122.740715 322.174011,122.740707 
	C332.457489,122.740685 332.461151,122.740318 331.382812,112.284264 
	C331.352875,111.993729 331.042694,111.732094 330.648468,111.127869 
	C315.225250,111.127869 299.589233,111.127869 283.052155,111.137733 
M781.634827,133.321320 
	C781.634827,131.222672 781.634827,129.124023 781.634827,126.830177 
	C778.417847,126.559685 775.857971,126.344444 772.846558,126.091232 
	C772.846558,122.531349 772.846558,119.290009 772.846558,115.939987 
	C768.137756,115.939987 763.934814,115.939987 759.188599,115.939987 
	C759.188599,119.616257 759.188599,122.855484 759.188599,125.972015 
	C756.889587,126.412643 755.149353,126.746185 753.536011,127.055389 
	C753.536011,130.463501 753.536011,133.522491 753.536011,136.535141 
	C755.680603,136.844650 757.427368,137.096725 759.764343,137.434006 
	C759.764343,145.952133 759.692261,154.246490 759.790039,162.538834 
	C759.853699,167.938995 763.079468,171.509125 767.917725,172.610336 
	C772.383484,173.626724 777.178406,173.196640 782.618042,173.438797 
	C781.668335,168.857300 781.014282,165.701981 780.359070,162.541229 
	C776.902893,162.621368 773.250732,163.394379 773.093994,158.972214 
	C772.836792,151.717987 773.024231,144.447983 773.024231,136.881653 
	C775.404419,136.881653 777.291992,137.195847 778.990295,136.764694 
	C780.021057,136.503036 780.759277,135.088989 781.634827,133.321320 
M667.114746,128.999420 
	C667.114746,143.578720 667.114746,158.158020 667.114746,172.778625 
	C671.923828,172.778625 676.029602,172.778625 680.759033,172.778625 
	C680.759033,165.614731 680.996643,158.660004 680.701843,151.727890 
	C680.287231,141.978516 682.648804,136.852127 694.645142,137.905487 
	C694.900757,137.927933 695.186096,137.611832 695.572632,137.386627 
	C695.572632,133.848953 695.572632,130.265778 695.572632,125.896812 
	C692.527283,126.171303 689.573364,125.839844 687.148743,126.819122 
	C684.567688,127.861557 682.487854,130.144821 680.219666,131.863205 
	C680.132385,130.301849 680.040894,128.665222 679.879639,125.781013 
	C675.422852,126.593628 671.296265,127.346054 667.114746,128.999420 
M344.348541,172.998444 
	C347.525421,173.385605 347.249664,171.193130 347.246765,169.158829 
	C347.237030,162.339554 347.069550,155.514130 347.300873,148.702560 
	C347.571259,140.741074 350.957153,137.743134 358.888184,137.880997 
	C359.847382,137.897675 360.807129,137.883286 361.985291,137.883286 
	C361.985291,133.905014 361.985291,130.211273 361.985291,126.477257 
	C355.488586,124.849327 350.850891,127.164490 347.184235,132.649643 
	C347.012299,130.324020 346.893066,128.710846 346.769806,127.043571 
	C342.431976,127.043571 338.395172,127.043571 334.263000,127.043571 
	C334.263000,142.485184 334.263000,157.535202 334.263000,173.001022 
	C337.471802,173.001022 340.429352,173.001022 344.348541,172.998444 
M381.969543,162.471313 
	C381.969543,150.593842 381.969543,138.716370 381.969543,126.444016 
	C378.285980,126.444016 375.308899,126.589394 372.352692,126.403473 
	C369.346100,126.214401 368.226990,127.304237 368.302002,130.386002 
	C368.475800,137.525101 368.355682,144.671356 368.355286,151.814713 
	C368.354919,158.749146 368.355194,165.683578 368.355194,172.678375 
	C373.164215,172.678375 377.379364,172.678375 381.969543,172.678375 
	C381.969543,169.384933 381.969543,166.421432 381.969543,162.471313 
M908.042969,145.500458 
	C908.042969,139.395081 908.042969,133.289719 908.042969,126.948166 
	C903.490417,126.948166 899.445801,126.948166 895.205566,126.948166 
	C895.205566,142.393143 895.205566,157.544281 895.205566,172.670410 
	C899.619995,172.670410 903.676880,172.670410 908.042969,172.670410 
	C908.042969,163.729965 908.042969,155.115158 908.042969,145.500458 
M906.586792,119.310226 
	C909.545593,116.045654 909.776672,112.163750 906.290955,109.885597 
	C904.053772,108.423439 899.967346,108.338928 897.330261,109.314278 
	C894.153564,110.489197 893.302124,114.000969 894.942322,117.325089 
	C896.913208,121.319160 900.453735,121.590668 904.272705,120.769592 
	C904.885376,120.637878 905.421021,120.147301 906.586792,119.310226 
M369.649689,118.835854 
	C371.231201,119.588280 372.965790,121.169548 374.360718,120.911888 
	C376.874542,120.447571 379.934113,119.449059 381.338348,117.593491 
	C382.420471,116.163589 382.195984,112.270546 380.965302,110.931824 
	C379.368561,109.194969 376.162170,108.069733 373.710449,108.171387 
	C368.903503,108.370697 367.117706,112.854500 369.649689,118.835854 
z"/>
<path fill="#3464E3" opacity="1.000000" stroke="none" 
	d="
M67.999901,155.000000 
	C67.999924,130.350052 67.988541,106.200111 68.004257,82.050179 
	C68.013680,67.578751 76.520531,59.010685 90.909241,59.005318 
	C131.714310,58.990101 172.519394,58.987064 213.324463,59.007111 
	C227.384857,59.014019 235.987930,67.663475 235.993912,81.784218 
	C236.011169,122.589287 236.010941,163.394379 235.994019,204.199448 
	C235.988159,218.326996 227.389420,226.985809 213.340790,226.992767 
	C172.369171,227.013062 131.397522,227.016479 90.425926,226.990646 
	C76.701584,226.981995 68.032669,218.249374 68.007141,204.465805 
	C67.976921,188.143921 67.999947,171.821945 67.999901,155.000000 
M146.359650,103.091949 
	C142.712036,102.641045 138.733368,101.042503 135.486053,101.979256 
	C128.822662,103.901436 122.542747,107.162544 116.121490,109.911049 
	C112.239990,111.572456 110.016319,114.465530 110.010704,118.781052 
	C109.987480,136.609390 109.890259,154.438782 110.054420,172.265640 
	C110.121399,179.538635 116.049660,183.259628 122.912788,180.623245 
	C126.791527,179.133286 130.704575,177.625488 134.343491,175.649368 
	C137.789429,173.778091 140.934341,173.573105 144.143478,175.740219 
	C158.519775,185.448349 172.686890,183.805191 186.749496,175.040894 
	C186.887390,174.954971 187.065689,174.936722 187.218811,174.871964 
	C191.863602,172.908386 194.081284,169.519165 194.048752,164.363159 
	C193.941605,147.368515 194.059830,130.372543 193.986771,113.377533 
	C193.949753,104.767204 187.665024,100.062927 180.398788,104.417442 
	C169.049652,111.218781 158.671463,110.293495 147.979202,103.834129 
	C147.695557,103.662781 147.382584,103.539978 146.359650,103.091949 
z"/>
<path fill="#3968E4" opacity="1.000000" stroke="none" 
	d="
M457.987854,163.955063 
	C457.987854,167.086533 457.987854,169.724503 457.987854,172.684784 
	C453.612976,172.684784 449.554321,172.684784 445.160553,172.684784 
	C445.160553,152.419449 445.160553,132.193466 445.160553,111.167839 
	C450.019226,111.167839 454.950317,110.960068 459.837524,111.330750 
	C460.905701,111.411774 462.168732,113.408730 462.745178,114.775131 
	C467.197998,125.330383 471.500580,135.949020 475.859589,146.543930 
	C476.473633,148.036453 477.141266,149.506912 478.235291,152.026733 
	C482.702423,141.210388 486.796112,131.370850 490.831482,121.507484 
	C495.079773,111.123795 495.055420,111.114265 506.168335,111.136978 
	C507.801819,111.140320 509.435333,111.137436 511.404419,111.137436 
	C511.404419,131.801743 511.404419,152.022797 511.404419,172.628113 
	C507.209137,172.628113 503.024750,172.628113 498.348480,172.628113 
	C498.348480,160.574265 498.348480,148.684814 498.348480,136.795380 
	C497.996307,136.719788 497.644135,136.644196 497.291962,136.568604 
	C493.079346,147.111038 488.738861,157.605179 484.727936,168.223801 
	C483.436554,171.642609 481.795105,173.098999 477.934387,173.022781 
	C474.491455,172.954834 473.047363,171.806458 471.866577,168.687469 
	C467.707184,157.700790 463.210785,146.841690 457.987854,136.010422 
	C457.987854,145.160797 457.987854,154.311172 457.987854,163.955063 
z"/>
<path fill="#3867E4" opacity="1.000000" stroke="none" 
	d="
M717.795959,146.151337 
	C710.835388,144.202286 704.586121,141.734604 702.151184,134.580597 
	C699.043396,125.449905 704.204895,115.709473 713.907471,112.323158 
	C720.659180,109.966721 727.582153,109.734322 734.461609,111.951797 
	C742.557739,114.561424 747.164001,119.997055 747.957581,129.595963 
	C744.031250,129.595963 740.309143,129.723862 736.608337,129.499741 
	C735.757690,129.448212 734.751465,128.330780 734.206482,127.460045 
	C730.893372,122.166618 724.464905,120.156418 719.213684,123.332153 
	C717.606934,124.303833 715.901489,126.569870 715.868408,128.274796 
	C715.835449,129.968307 717.466614,132.474503 719.045837,133.257980 
	C722.420044,134.931992 726.252258,135.664200 729.859314,136.892715 
	C733.303772,138.065872 736.949646,138.939407 740.074036,140.709030 
	C751.910095,147.413010 751.945862,164.153442 739.914246,170.418625 
	C729.526611,175.827698 718.650146,175.513290 708.349182,169.827499 
	C702.140442,166.400482 699.777344,160.593765 700.075378,153.315292 
	C704.428711,153.315292 708.381592,153.315292 712.355408,153.315292 
	C716.275452,161.076950 720.682373,163.858170 727.935669,161.718292 
	C730.617920,160.926987 733.413330,158.018341 734.472595,155.395111 
	C734.928406,154.266357 731.463806,150.693680 729.131165,149.505371 
	C725.794434,147.805511 721.862183,147.274353 717.795959,146.151337 
z"/>
<path fill="#3968E4" opacity="1.000000" stroke="none" 
	d="
M391.108917,137.053833 
	C391.108948,133.434509 391.108948,130.305252 391.108948,126.821968 
	C395.660309,126.821968 399.735718,126.821968 404.098236,126.821968 
	C404.343414,128.483795 404.577698,130.072006 404.662689,130.648056 
	C408.928070,129.102554 413.236084,126.292664 417.508057,126.346413 
	C421.746216,126.399742 426.654694,128.468445 430.010956,131.199493 
	C436.002686,136.075134 436.607117,143.643784 436.515320,150.872147 
	C436.469727,154.460876 435.717773,158.183243 434.544220,161.589813 
	C429.994476,174.796631 413.301605,177.821289 404.752258,167.154541 
	C404.752258,171.770096 404.752228,175.266678 404.752228,178.763260 
	C404.752228,182.382416 404.752258,186.001556 404.752258,189.863861 
	C400.042358,189.863861 395.934814,189.863861 391.108887,189.863861 
	C391.108887,172.395599 391.108887,154.969757 391.108917,137.053833 
M420.595276,158.882477 
	C423.380737,153.212906 424.114868,147.288971 420.833557,141.785614 
	C419.532806,139.603973 416.384460,137.267639 414.083466,137.273880 
	C411.518402,137.280807 407.302429,139.406876 406.733063,141.433258 
	C405.414520,146.125687 404.724304,151.589447 405.849457,156.239578 
	C407.713379,163.942963 414.237244,165.065506 420.595276,158.882477 
z"/>
<path fill="#3767E3" opacity="1.000000" stroke="none" 
	d="
M861.412598,126.120003 
	C864.820129,127.783875 867.811829,129.398819 871.418701,131.345856 
	C871.418701,126.595337 871.705872,121.575928 871.333069,116.606010 
	C871.000122,112.166924 872.486206,110.507774 876.920959,111.085587 
	C879.342957,111.401154 881.839844,111.141960 884.623413,111.141960 
	C884.623413,131.831100 884.623413,152.064011 884.623413,172.652893 
	C880.532532,172.652893 876.458801,172.652893 872.088013,172.652893 
	C871.942322,171.131714 871.788757,169.528397 871.632874,167.900574 
	C871.374084,167.849457 870.885681,167.642456 870.799683,167.751816 
	C866.061157,173.778915 859.829041,174.993286 852.898315,172.879745 
	C845.398376,170.592606 841.346375,164.667480 840.415588,157.449387 
	C839.647888,151.496552 839.906433,145.072754 841.328979,139.253387 
	C843.614502,129.903961 850.500305,125.865196 861.412598,126.120003 
M870.577209,143.226700 
	C869.040955,139.084000 866.404053,136.536377 861.645020,136.939484 
	C856.776550,137.351852 854.476440,140.787994 854.100525,144.849121 
	C853.703552,149.138031 853.921692,153.831100 855.360779,157.808640 
	C856.184937,160.086609 859.965027,162.598541 862.428955,162.613678 
	C864.898621,162.628845 868.844910,160.137512 869.556458,157.916000 
	C870.948853,153.568436 870.541016,148.644272 870.577209,143.226700 
z"/>
<path fill="#3665E3" opacity="1.000000" stroke="none" 
	d="
M611.125000,167.919830 
	C612.176575,169.594635 613.035767,170.957275 614.324036,173.000366 
	C609.349487,173.000366 605.078308,173.239624 600.860596,172.869446 
	C599.401428,172.741394 597.695312,171.378220 596.755737,170.098999 
	C593.223694,165.290207 589.961426,160.283295 586.573730,155.314957 
	C584.207520,157.600403 584.207520,157.600403 582.952637,172.632980 
	C578.916321,172.632980 574.837280,172.632980 570.372375,172.632980 
	C570.372375,152.462860 570.372375,132.113892 570.372375,111.455017 
	C574.472778,111.455017 578.400696,111.455017 583.019836,111.455017 
	C583.019836,121.726532 583.019836,132.065231 583.019836,142.403915 
	C583.430176,142.561859 583.840515,142.719788 584.250793,142.877731 
	C586.959290,139.666809 590.001404,136.676041 592.299133,133.194092 
	C595.876587,127.772957 600.463257,125.376221 606.928650,126.430855 
	C608.807800,126.737373 610.779236,126.477928 613.879456,126.477928 
	C608.548401,132.706558 604.150879,138.085953 599.471313,143.207657 
	C597.218750,145.673050 596.731628,147.505249 598.950195,150.407745 
	C603.189453,155.953735 606.964783,161.854294 611.125000,167.919830 
z"/>
<path fill="#3968E4" opacity="1.000000" stroke="none" 
	d="
M547.479858,168.695999 
	C542.277344,173.729050 536.359985,174.927353 529.751343,173.304047 
	C522.781921,171.592087 519.310425,167.449326 519.054993,160.774719 
	C518.786255,153.751816 521.959412,148.945435 528.845032,147.028915 
	C532.970398,145.880692 537.357788,145.708527 541.569275,144.821869 
	C543.959045,144.318787 547.512085,144.598526 546.982239,140.548080 
	C546.495239,136.825256 543.613281,135.863220 540.352295,136.083328 
	C538.918518,136.180099 536.901367,136.442413 536.217102,137.395996 
	C532.000061,143.272873 526.558655,140.507858 521.380737,140.111435 
	C521.791687,132.631927 527.896973,126.961075 536.895813,126.199486 
	C540.797119,125.869316 544.894897,126.245369 548.729858,127.089478 
	C556.269165,128.748993 560.417114,133.340836 560.717957,140.991425 
	C561.128418,151.426575 560.820374,161.889984 560.820374,172.674347 
	C556.646179,172.674347 552.730103,172.674347 548.351318,172.674347 
	C548.199646,171.514587 548.018250,170.127701 547.479858,168.695999 
M535.631836,154.922485 
	C534.485535,156.851349 533.339294,158.780228 532.193054,160.709106 
	C534.348267,161.851410 536.460327,163.860504 538.666992,163.970581 
	C544.843933,164.278748 547.862000,159.993011 546.921082,152.565933 
	C543.385864,153.250488 539.875427,153.930237 535.631836,154.922485 
z"/>
<path fill="#3867E4" opacity="1.000000" stroke="none" 
	d="
M658.385132,140.888397 
	C658.999207,145.010086 659.443848,148.762314 659.979675,153.284866 
	C649.360962,153.284866 639.342773,153.284866 629.245667,153.284866 
	C628.481873,157.771729 630.077637,161.005753 633.330750,161.993454 
	C636.525818,162.963531 641.842651,163.669128 643.436157,161.930939 
	C648.242371,156.688416 653.483032,159.625061 658.960693,159.089691 
	C658.804932,164.159988 656.108765,167.353409 652.600647,169.928085 
	C644.138977,176.138214 628.954895,175.048721 621.555542,167.825516 
	C614.243103,160.687134 612.962341,144.996277 618.935730,135.729446 
	C624.715088,126.763664 636.529053,123.465973 647.186157,127.874962 
	C652.944763,130.257370 656.525391,134.571594 658.385132,140.888397 
M644.462219,139.046967 
	C641.217224,135.989548 637.497070,135.218170 633.584534,137.385315 
	C630.875305,138.885925 628.494812,140.931641 629.249817,144.565186 
	C635.192688,144.565186 640.847595,144.565186 647.115967,144.565186 
	C646.228516,142.559662 645.581055,141.096527 644.462219,139.046967 
z"/>
<path fill="#3867E4" opacity="1.000000" stroke="none" 
	d="
M796.056030,171.094070 
	C793.652893,167.250259 790.061401,163.708557 789.777771,159.919281 
	C788.964539,149.053192 789.491333,138.086823 789.491333,126.827881 
	C793.841309,126.827881 798.056213,126.827881 802.748291,126.827881 
	C802.748291,134.297195 802.733582,141.414902 802.757141,148.532486 
	C802.764282,150.692429 802.740967,152.866592 802.970093,155.008713 
	C803.414062,159.158905 805.598389,161.858337 809.972351,161.941177 
	C814.356445,162.024200 817.609680,159.777145 817.981812,155.402390 
	C818.572083,148.463486 818.436035,141.461807 818.576355,134.486084 
	C818.625793,132.027466 818.584290,129.567032 818.584290,126.796753 
	C823.157837,126.796753 827.230225,126.796753 831.657898,126.796753 
	C831.657898,142.028320 831.657898,157.215515 831.657898,172.706726 
	C827.606384,172.706726 823.552063,172.706726 819.276794,172.706726 
	C819.144531,170.745438 819.023987,168.957443 818.866638,166.623474 
	C812.400757,174.054382 804.937866,175.670761 796.056030,171.094070 
z"/>
<path fill="#3767E3" opacity="1.000000" stroke="none" 
	d="
M953.746521,131.207764 
	C966.980957,144.791260 962.433411,168.160507 945.953003,172.923965 
	C934.925537,176.111343 923.598083,171.967316 918.597656,162.916306 
	C913.239868,153.218460 915.339966,138.189529 922.994629,131.449631 
	C931.098511,124.314369 944.187988,124.111610 953.746521,131.207764 
M942.131897,137.194733 
	C937.628601,135.476181 933.812988,136.387390 931.553162,140.747192 
	C928.382446,146.864273 928.381104,153.219299 931.714966,159.292908 
	C934.540710,164.440887 941.681274,164.686737 945.002136,159.950195 
	C949.482971,153.559097 948.446289,143.163528 942.131897,137.194733 
z"/>
<path fill="#3C6AE4" opacity="1.000000" stroke="none" 
	d="
M283.502686,111.132797 
	C299.589233,111.127869 315.225250,111.127869 330.648468,111.127869 
	C331.042694,111.732094 331.352875,111.993729 331.382812,112.284264 
	C332.461151,122.740318 332.457489,122.740685 322.174011,122.740707 
	C319.349152,122.740715 316.524292,122.740715 313.198914,122.740715 
	C313.198914,139.365906 313.198914,155.769501 313.198914,172.594025 
	C308.488464,172.594025 304.262634,172.594025 299.322754,172.594025 
	C299.322754,156.284164 299.322754,139.768860 299.322754,122.823914 
	C292.865906,122.823914 287.099670,122.823914 280.373413,122.823914 
	C282.016907,118.647667 277.705078,114.157166 283.502686,111.132797 
z"/>
<path fill="#3767E3" opacity="1.000000" stroke="none" 
	d="
M781.631897,133.756989 
	C780.759277,135.088989 780.021057,136.503036 778.990295,136.764694 
	C777.291992,137.195847 775.404419,136.881653 773.024231,136.881653 
	C773.024231,144.447983 772.836792,151.717987 773.093994,158.972214 
	C773.250732,163.394379 776.902893,162.621368 780.359070,162.541229 
	C781.014282,165.701981 781.668335,168.857300 782.618042,173.438797 
	C777.178406,173.196640 772.383484,173.626724 767.917725,172.610336 
	C763.079468,171.509125 759.853699,167.938995 759.790039,162.538834 
	C759.692261,154.246490 759.764343,145.952133 759.764343,137.434006 
	C757.427368,137.096725 755.680603,136.844650 753.536011,136.535141 
	C753.536011,133.522491 753.536011,130.463501 753.536011,127.055389 
	C755.149353,126.746185 756.889587,126.412643 759.188599,125.972015 
	C759.188599,122.855484 759.188599,119.616257 759.188599,115.939987 
	C763.934814,115.939987 768.137756,115.939987 772.846558,115.939987 
	C772.846558,119.290009 772.846558,122.531349 772.846558,126.091232 
	C775.857971,126.344444 778.417847,126.559685 781.634827,126.830177 
	C781.634827,129.124023 781.634827,131.222672 781.631897,133.756989 
z"/>
<path fill="#3B69E4" opacity="1.000000" stroke="none" 
	d="
M667.142212,128.548950 
	C671.296265,127.346054 675.422852,126.593628 679.879639,125.781013 
	C680.040894,128.665222 680.132385,130.301849 680.219666,131.863205 
	C682.487854,130.144821 684.567688,127.861557 687.148743,126.819122 
	C689.573364,125.839844 692.527283,126.171303 695.572632,125.896812 
	C695.572632,130.265778 695.572632,133.848953 695.572632,137.386627 
	C695.186096,137.611832 694.900757,137.927933 694.645142,137.905487 
	C682.648804,136.852127 680.287231,141.978516 680.701843,151.727890 
	C680.996643,158.660004 680.759033,165.614731 680.759033,172.778625 
	C676.029602,172.778625 671.923828,172.778625 667.114746,172.778625 
	C667.114746,158.158020 667.114746,143.578720 667.142212,128.548950 
z"/>
<path fill="#3565E3" opacity="1.000000" stroke="none" 
	d="
M343.867737,172.999725 
	C340.429352,173.001022 337.471802,173.001022 334.263000,173.001022 
	C334.263000,157.535202 334.263000,142.485184 334.263000,127.043571 
	C338.395172,127.043571 342.431976,127.043571 346.769806,127.043571 
	C346.893066,128.710846 347.012299,130.324020 347.184235,132.649643 
	C350.850891,127.164490 355.488586,124.849327 361.985291,126.477257 
	C361.985291,130.211273 361.985291,133.905014 361.985291,137.883286 
	C360.807129,137.883286 359.847382,137.897675 358.888184,137.880997 
	C350.957153,137.743134 347.571259,140.741074 347.300873,148.702560 
	C347.069550,155.514130 347.237030,162.339554 347.246765,169.158829 
	C347.249664,171.193130 347.525421,173.385605 343.867737,172.999725 
z"/>
<path fill="#3D6AE4" opacity="1.000000" stroke="none" 
	d="
M381.969543,162.964615 
	C381.969543,166.421432 381.969543,169.384933 381.969543,172.678375 
	C377.379364,172.678375 373.164215,172.678375 368.355194,172.678375 
	C368.355194,165.683578 368.354919,158.749146 368.355286,151.814713 
	C368.355682,144.671356 368.475800,137.525101 368.302002,130.386002 
	C368.226990,127.304237 369.346100,126.214401 372.352692,126.403473 
	C375.308899,126.589394 378.285980,126.444016 381.969543,126.444016 
	C381.969543,138.716370 381.969543,150.593842 381.969543,162.964615 
z"/>
<path fill="#3464E3" opacity="1.000000" stroke="none" 
	d="
M908.042969,146.000397 
	C908.042969,155.115158 908.042969,163.729965 908.042969,172.670410 
	C903.676880,172.670410 899.619995,172.670410 895.205566,172.670410 
	C895.205566,157.544281 895.205566,142.393143 895.205566,126.948166 
	C899.445801,126.948166 903.490417,126.948166 908.042969,126.948166 
	C908.042969,133.289719 908.042969,139.395081 908.042969,146.000397 
z"/>
<path fill="#3968E4" opacity="1.000000" stroke="none" 
	d="
M906.289551,119.566414 
	C905.421021,120.147301 904.885376,120.637878 904.272705,120.769592 
	C900.453735,121.590668 896.913208,121.319160 894.942322,117.325089 
	C893.302124,114.000969 894.153564,110.489197 897.330261,109.314278 
	C899.967346,108.338928 904.053772,108.423439 906.290955,109.885597 
	C909.776672,112.163750 909.545593,116.045654 906.289551,119.566414 
z"/>
<path fill="#3B69E4" opacity="1.000000" stroke="none" 
	d="
M369.405518,118.523430 
	C367.117706,112.854500 368.903503,108.370697 373.710449,108.171387 
	C376.162170,108.069733 379.368561,109.194969 380.965302,110.931824 
	C382.195984,112.270546 382.420471,116.163589 381.338348,117.593491 
	C379.934113,119.449059 376.874542,120.447571 374.360718,120.911888 
	C372.965790,121.169548 371.231201,119.588280 369.405518,118.523430 
z"/>
<path fill="#FBFCFE" opacity="1.000000" stroke="none" 
	d="
M146.721466,103.243240 
	C147.382584,103.539978 147.695557,103.662781 147.979202,103.834129 
	C158.671463,110.293495 169.049652,111.218781 180.398788,104.417442 
	C187.665024,100.062927 193.949753,104.767204 193.986771,113.377533 
	C194.059830,130.372543 193.941605,147.368515 194.048752,164.363159 
	C194.081284,169.519165 191.863602,172.908386 187.218811,174.871964 
	C187.065689,174.936722 186.887390,174.954971 186.749496,175.040894 
	C172.686890,183.805191 158.519775,185.448349 144.143478,175.740219 
	C140.934341,173.573105 137.789429,173.778091 134.343491,175.649368 
	C130.704575,177.625488 126.791527,179.133286 122.912788,180.623245 
	C116.049660,183.259628 110.121399,179.538635 110.054420,172.265640 
	C109.890259,154.438782 109.987480,136.609390 110.010704,118.781052 
	C110.016319,114.465530 112.239990,111.572456 116.121490,109.911049 
	C122.542747,107.162544 128.822662,103.901436 135.486053,101.979256 
	C138.733368,101.042503 142.712036,102.641045 146.721466,103.243240 
M168.283112,137.500275 
	C168.283112,149.862289 168.283112,162.224304 168.283112,175.154175 
	C173.771072,172.836655 178.299545,170.760651 182.953125,169.018860 
	C185.874466,167.925415 186.976456,166.265518 186.947113,163.079239 
	C186.798294,146.921356 186.898163,130.761337 186.846268,114.602264 
	C186.841446,113.099892 186.383636,111.598984 186.064835,109.664711 
	C180.759659,111.934456 176.243698,114.042091 171.592072,115.788322 
	C168.962708,116.775383 168.106995,118.260437 168.221436,121.010338 
	C168.435974,126.165703 168.283310,131.336349 168.283112,137.500275 
M117.122185,153.499786 
	C117.122185,160.367142 117.122185,167.234497 117.122185,175.125320 
	C122.901550,172.688873 127.234772,170.640854 131.727966,169.042557 
	C134.938202,167.900589 135.834213,166.053131 135.797043,162.721420 
	C135.616913,146.574112 135.724655,130.423691 135.699905,114.274429 
	C135.697769,112.880196 135.473053,111.486305 135.300110,109.499290 
	C130.147308,111.703346 125.654694,113.803696 121.025681,115.540573 
	C118.066277,116.651001 117.011826,118.390488 117.061432,121.534111 
	C117.224258,131.853775 117.122398,142.177612 117.122185,153.499786 
M161.096146,122.708755 
	C160.746994,120.672913 161.055496,117.410133 159.936584,116.810402 
	C154.667374,113.986069 149.006744,111.891991 142.907898,109.290924 
	C142.907898,128.492310 142.869507,146.612793 142.998764,164.732071 
	C143.006943,165.876389 144.054642,167.568588 145.073456,168.056549 
	C150.124893,170.476074 155.329102,172.576645 161.096207,175.054611 
	C161.096207,157.478485 161.096207,140.568481 161.096146,122.708755 
z"/>
<path fill="#FBFCFF" opacity="1.000000" stroke="none" 
	d="
M420.367096,159.197693 
	C414.237244,165.065506 407.713379,163.942963 405.849457,156.239578 
	C404.724304,151.589447 405.414520,146.125687 406.733063,141.433258 
	C407.302429,139.406876 411.518402,137.280807 414.083466,137.273880 
	C416.384460,137.267639 419.532806,139.603973 420.833557,141.785614 
	C424.114868,147.288971 423.380737,153.212906 420.367096,159.197693 
z"/>
<path fill="#FBFCFE" opacity="1.000000" stroke="none" 
	d="
M870.727783,143.592743 
	C870.541016,148.644272 870.948853,153.568436 869.556458,157.916000 
	C868.844910,160.137512 864.898621,162.628845 862.428955,162.613678 
	C859.965027,162.598541 856.184937,160.086609 855.360779,157.808640 
	C853.921692,153.831100 853.703552,149.138031 854.100525,144.849121 
	C854.476440,140.787994 856.776550,137.351852 861.645020,136.939484 
	C866.404053,136.536377 869.040955,139.084000 870.727783,143.592743 
z"/>
<path fill="#FAFBFE" opacity="1.000000" stroke="none" 
	d="
M535.998413,154.766235 
	C539.875427,153.930237 543.385864,153.250488 546.921082,152.565933 
	C547.862000,159.993011 544.843933,164.278748 538.666992,163.970581 
	C536.460327,163.860504 534.348267,161.851410 532.193054,160.709106 
	C533.339294,158.780228 534.485535,156.851349 535.998413,154.766235 
z"/>
<path fill="#F5F8FE" opacity="1.000000" stroke="none" 
	d="
M644.697876,139.340179 
	C645.581055,141.096527 646.228516,142.559662 647.115967,144.565186 
	C640.847595,144.565186 635.192688,144.565186 629.249817,144.565186 
	C628.494812,140.931641 630.875305,138.885925 633.584534,137.385315 
	C637.497070,135.218170 641.217224,135.989548 644.697876,139.340179 
z"/>
<path fill="#FAFBFE" opacity="1.000000" stroke="none" 
	d="
M942.452148,137.392960 
	C948.446289,143.163528 949.482971,153.559097 945.002136,159.950195 
	C941.681274,164.686737 934.540710,164.440887 931.714966,159.292908 
	C928.381104,153.219299 928.382446,146.864273 931.553162,140.747192 
	C933.812988,136.387390 937.628601,135.476181 942.452148,137.392960 
z"/>
<path fill="#3C6AE4" opacity="1.000000" stroke="none" 
	d="
M168.283249,137.000458 
	C168.283310,131.336349 168.435974,126.165703 168.221436,121.010338 
	C168.106995,118.260437 168.962708,116.775383 171.592072,115.788322 
	C176.243698,114.042091 180.759659,111.934456 186.064835,109.664711 
	C186.383636,111.598984 186.841446,113.099892 186.846268,114.602264 
	C186.898163,130.761337 186.798294,146.921356 186.947113,163.079239 
	C186.976456,166.265518 185.874466,167.925415 182.953125,169.018860 
	C178.299545,170.760651 173.771072,172.836655 168.283112,175.154175 
	C168.283112,162.224304 168.283112,149.862289 168.283249,137.000458 
z"/>
<path fill="#3B6AE4" opacity="1.000000" stroke="none" 
	d="
M117.122223,152.999817 
	C117.122398,142.177612 117.224258,131.853775 117.061432,121.534111 
	C117.011826,118.390488 118.066277,116.651001 121.025681,115.540573 
	C125.654694,113.803696 130.147308,111.703346 135.300110,109.499290 
	C135.473053,111.486305 135.697769,112.880196 135.699905,114.274429 
	C135.724655,130.423691 135.616913,146.574112 135.797043,162.721420 
	C135.834213,166.053131 134.938202,167.900589 131.727966,169.042557 
	C127.234772,170.640854 122.901550,172.688873 117.122185,175.125320 
	C117.122185,167.234497 117.122185,160.367142 117.122223,152.999817 
z"/>
<path fill="#3565E3" opacity="1.000000" stroke="none" 
	d="
M161.096176,123.183617 
	C161.096207,140.568481 161.096207,157.478485 161.096207,175.054611 
	C155.329102,172.576645 150.124893,170.476074 145.073456,168.056549 
	C144.054642,167.568588 143.006943,165.876389 142.998764,164.732071 
	C142.869507,146.612793 142.907898,128.492310 142.907898,109.290924 
	C149.006744,111.891991 154.667374,113.986069 159.936584,116.810402 
	C161.055496,117.410133 160.746994,120.672913 161.096176,123.183617 
z"/>
</svg>