
<svg version="1.1" id="Layer_1" xmlns="http://www.w3.org/2000/svg" xmlns:xlink="http://www.w3.org/1999/xlink" x="0px" y="0px"
	 width="100%" viewBox="0 0 812 344" enable-background="new 0 0 812 344" xml:space="preserve">
<path fill="#FEFEFE" opacity="1.000000" stroke="none" 
	d="
M485.000000,345.000000 
	C323.333344,345.000000 162.166702,345.000000 1.000043,345.000000 
	C1.000029,230.333359 1.000029,115.666733 1.000014,1.000074 
	C271.666595,1.000049 542.333191,1.000049 812.999878,1.000025 
	C812.999878,115.666588 812.999878,230.333176 812.999939,344.999878 
	C703.833313,345.000000 594.666687,345.000000 485.000000,345.000000 
M488.447327,137.987015 
	C478.205963,121.608925 467.991791,105.213654 457.675476,88.882912 
	C456.773987,87.455910 455.248627,85.479591 453.932343,85.415512 
	C446.869965,85.071686 439.782043,85.253120 432.764404,85.253120 
	C432.764404,118.095741 432.764404,150.142593 432.764404,182.121704 
	C439.543304,182.121704 445.917999,182.121704 452.930725,182.121704 
	C452.930725,159.574142 452.930725,137.470642 452.930725,114.089111 
	C454.528442,116.539345 455.360443,117.761559 456.138824,119.016975 
	C468.511017,138.971710 480.854401,158.944397 493.289154,178.860046 
	C494.183563,180.292526 495.685638,182.301910 496.986664,182.365051 
	C504.088928,182.709808 511.216675,182.529160 518.516785,182.529160 
	C518.516785,149.919022 518.516785,117.863091 518.516785,85.579071 
	C511.868927,85.579071 505.499512,85.579071 498.398499,85.579071 
	C498.398499,107.866966 498.398499,129.805374 498.398499,151.743774 
	C498.024902,151.821655 497.651306,151.899551 497.277679,151.977448 
	C494.466003,147.517593 491.654327,143.057724 488.447327,137.987015 
M407.519775,159.957153 
	C408.095459,158.756302 408.752106,157.587036 409.234741,156.349884 
	C417.160797,136.032730 416.259338,116.430527 401.548981,99.672310 
	C387.152832,83.272026 368.020935,80.928444 347.870239,86.326561 
	C326.720154,91.992401 314.227478,111.212685 314.806671,135.802887 
	C315.352386,158.971512 328.371704,176.212738 349.688538,181.996277 
	C372.540253,188.196259 395.421722,179.679749 407.519775,159.957153 
M543.834412,123.499977 
	C543.834412,143.055634 543.834412,162.611298 543.834412,181.919968 
	C559.076599,181.919968 573.606873,182.870804 587.960388,181.684280 
	C606.783203,180.128281 620.224670,167.565292 623.504333,149.124542 
	C625.024292,140.578003 625.346497,131.471237 624.239990,122.872169 
	C621.323303,100.205994 607.107178,87.020180 584.340210,85.584373 
	C571.406982,84.768738 558.383911,85.371758 545.401306,85.373451 
	C544.977112,85.373512 544.552979,85.784920 543.834290,86.157074 
	C543.834290,98.221748 543.834290,110.360863 543.834412,123.499977 
M683.682495,84.015266 
	C655.793457,86.308525 638.787048,104.034302 637.520996,132.129532 
	C636.346863,158.185364 652.533813,178.918915 677.252502,183.020889 
	C702.499634,187.210556 726.625183,174.753601 732.648743,154.075027 
	C729.749939,152.994125 726.829834,151.864655 723.880737,150.816757 
	C720.786255,149.717255 717.664001,148.695969 714.468567,147.611542 
	C713.825562,148.684723 713.392761,149.371002 712.994690,150.076874 
	C705.249268,163.810684 689.000000,169.249603 674.690735,162.634171 
	C661.839294,156.692688 657.585632,145.799103 657.815002,132.400055 
	C658.064941,117.796425 666.232849,106.707245 679.311157,103.516632 
	C693.756165,99.992607 706.388550,105.540100 713.444397,118.485207 
	C713.744446,119.035751 714.219727,119.490814 714.753784,120.168625 
	C720.757935,117.947243 726.640869,115.770691 733.316650,113.300804 
	C731.210327,109.592392 729.663086,106.109192 727.456238,103.111603 
	C716.832886,88.682198 701.923645,83.606438 683.682495,84.015266 
M350.360352,230.783859 
	C343.647949,248.076187 336.935516,265.368530 329.814514,283.713409 
	C333.142181,283.713409 335.268616,283.480133 337.326050,283.757904 
	C343.096771,284.536896 347.266266,283.247772 348.787445,276.789978 
	C349.080048,275.547852 351.512939,274.113159 353.054993,273.991547 
	C357.859589,273.612457 362.726257,274.051392 367.538177,273.723206 
	C370.930389,273.491852 372.773895,274.557861 373.763062,277.841919 
	C374.363251,279.834595 375.500458,283.074371 376.713623,283.226624 
	C381.634216,283.844269 386.677673,283.483276 392.456055,283.483276 
	C384.584991,262.791168 377.211975,243.351471 369.741638,223.949249 
	C369.392792,223.043213 368.191437,221.868317 367.359222,221.845718 
	C363.050568,221.728699 358.462555,221.118744 354.534241,222.401962 
	C352.620453,223.027084 351.932098,227.403656 350.360352,230.783859 
M448.391266,241.873016 
	C446.748230,229.143173 439.845062,222.509018 427.021271,221.920364 
	C419.216888,221.562119 411.378143,221.983566 403.569183,221.682495 
	C399.701569,221.533371 398.824677,222.979889 398.864166,226.582336 
	C399.033783,242.053833 398.936890,257.528259 398.936890,273.001617 
	C398.936859,283.930511 398.936432,283.803101 409.711121,283.779663 
	C413.114197,283.772247 414.514740,282.876221 414.322845,279.283356 
	C414.060059,274.362701 414.257172,269.417511 414.257172,263.910461 
	C418.719147,263.910461 422.533722,264.167175 426.303558,263.865051 
	C440.848816,262.699280 448.041748,255.736023 448.391266,241.873016 
M461.594971,221.764297 
	C460.156982,221.867874 458.719025,221.971451 457.035156,222.092728 
	C457.035156,242.631058 457.035156,262.831299 457.035156,283.698059 
	C460.883392,283.698059 464.504181,283.557922 468.108582,283.740417 
	C471.245758,283.899261 472.141479,282.514923 472.048248,279.586090 
	C471.886841,274.514069 472.003479,269.433167 472.003479,264.670654 
	C478.568481,264.023376 484.462921,264.046661 490.063446,262.775116 
	C505.964874,259.164856 511.680267,241.695984 501.337524,229.264618 
	C496.948730,223.989578 491.041443,222.091034 484.523529,221.890457 
	C477.214813,221.665543 469.895294,221.791122 461.594971,221.764297 
M244.484406,246.495941 
	C240.910736,246.495941 237.337051,246.495941 233.352814,246.495941 
	C233.352814,236.877533 233.352814,228.109756 233.352814,219.217865 
	C221.534027,219.217865 210.145874,219.217865 198.630890,219.217865 
	C198.630890,223.350815 198.630890,227.194763 198.630890,231.549591 
	C206.269531,231.549591 213.491058,231.549591 221.303314,231.549591 
	C221.303314,240.928131 221.303314,249.802444 221.303314,258.646057 
	C233.490005,258.646057 245.063370,258.646057 256.759521,258.646057 
	C256.759521,254.513641 256.759521,250.661636 256.759521,246.496262 
	C252.753784,246.496262 249.114853,246.496262 244.484406,246.495941 
M93.493690,164.978256 
	C100.900368,164.978256 108.307045,164.978256 115.653404,164.978256 
	C115.653404,152.660233 115.653404,141.259872 115.653404,129.747162 
	C111.470169,129.747162 107.587265,129.747162 103.215439,129.747162 
	C103.215439,137.348312 103.215439,144.582336 103.215439,152.273346 
	C95.325752,152.273346 87.916107,152.273346 80.349396,152.273346 
	C80.349396,164.575516 80.349396,176.402542 80.349396,188.198502 
	C84.453087,188.198502 88.173721,188.198502 92.610535,188.198502 
	C92.610535,180.366653 92.610535,172.923996 93.493690,164.978256 
M171.518738,109.283798 
	C168.757034,109.283798 165.995331,109.283798 162.780548,109.283798 
	C162.780548,101.333336 162.780548,94.085297 162.780548,86.727005 
	C158.436508,86.727005 154.581940,86.727005 150.741699,86.727005 
	C150.741699,98.577080 150.741699,109.992142 150.741699,121.914604 
	C158.178925,121.914604 165.275024,121.914604 172.862137,121.914604 
	C172.862137,130.013748 172.862137,137.616562 172.862137,145.469452 
	C177.108826,145.469452 180.851944,145.469452 184.770798,145.469452 
	C184.770798,133.375824 184.770798,121.514473 184.770798,109.283913 
	C180.450546,109.283913 176.479736,109.283913 171.518738,109.283798 
M115.518707,176.126907 
	C111.592697,176.126907 107.666687,176.126907 103.196991,176.126907 
	C103.196991,183.940613 103.196991,191.014206 103.196991,198.628662 
	C96.558289,198.628662 90.478050,198.628662 84.404343,198.628662 
	C84.404343,202.958954 84.404343,206.720169 84.404343,210.733521 
	C94.942955,210.733521 105.174675,210.733521 115.974579,210.733521 
	C115.974579,203.248825 115.974579,196.002365 115.974579,188.362732 
	C125.305740,188.362732 134.073654,188.362732 142.894806,188.362732 
	C142.894806,184.083847 142.894806,180.232361 142.894806,176.126984 
	C133.817215,176.126984 125.165352,176.126984 115.518707,176.126907 
M137.376495,227.369019 
	C137.376495,218.616592 137.376495,209.864166 137.376495,201.014404 
	C132.929214,201.014404 129.178604,201.014404 124.940491,201.014404 
	C124.940491,208.517990 124.940491,215.765213 124.940491,223.660828 
	C117.256447,223.660828 110.049400,223.660828 102.941757,223.660828 
	C102.941757,236.049911 102.941757,247.772797 102.941757,259.518616 
	C107.102371,259.518616 110.849724,259.518616 115.175224,259.518616 
	C115.175224,251.483414 115.175224,243.762360 115.175224,235.661865 
	C122.836449,235.661865 129.913376,235.661865 137.376007,235.661865 
	C137.376007,232.944229 137.376007,230.636047 137.376495,227.369019 
M199.454651,241.938919 
	C195.047409,241.938919 190.640167,241.938919 185.827271,241.938919 
	C185.827271,233.535477 185.827271,225.962418 185.827271,218.461304 
	C181.649979,218.461304 177.926880,218.461304 174.205750,218.461304 
	C174.205750,230.539810 174.205750,242.247375 174.205750,254.475830 
	C181.595871,254.475830 188.654053,254.475830 196.094177,254.475830 
	C196.094177,262.260132 196.094177,269.526306 196.094177,277.089600 
	C200.385345,277.089600 204.277283,277.089600 208.280350,277.089600 
	C208.280350,265.262878 208.280350,253.756775 208.280350,241.938904 
	C205.389343,241.938904 202.909836,241.938904 199.454651,241.938919 
M101.771454,108.618713 
	C101.771454,111.364334 101.771454,114.109947 101.771454,117.326248 
	C110.118423,117.326248 117.685883,117.326248 125.833313,117.326248 
	C125.833313,126.516396 125.833313,135.222656 125.833313,143.885010 
	C137.815628,143.885010 149.199417,143.885010 160.614258,143.885010 
	C160.614258,139.828201 160.614258,136.102341 160.614258,131.718246 
	C152.926132,131.718246 145.554901,131.718246 137.709351,131.718246 
	C137.709351,122.481903 137.709351,113.902519 137.709351,104.905464 
	C126.258125,104.905464 115.310852,104.842697 104.367645,105.024376 
	C103.490234,105.038940 102.640800,106.738205 101.771454,108.618713 
M149.988007,273.442291 
	C149.988007,276.049744 149.988007,278.657196 149.988007,281.414001 
	C162.289429,281.414001 174.016602,281.414001 185.676727,281.414001 
	C185.676727,277.212982 185.676727,273.333466 185.676727,269.050293 
	C177.836044,269.050293 170.400192,269.050293 162.428802,269.050293 
	C162.428802,261.567963 162.428802,254.487473 162.428802,247.365005 
	C150.355133,247.365005 138.837997,247.365005 127.364655,247.365005 
	C127.364655,251.417725 127.364655,255.019608 127.364655,259.304321 
	C135.017685,259.304321 142.393478,259.304321 149.988037,259.304321 
	C149.988037,264.152527 149.988037,268.308014 149.988007,273.442291 
M195.255219,94.626862 
	C195.767548,96.206779 196.671906,97.774437 196.721756,99.368820 
	C196.901154,105.106384 196.792206,110.852959 196.792206,116.613083 
	C208.895142,116.613083 220.273117,116.613083 231.807770,116.613083 
	C231.807770,112.537605 231.807770,108.773590 231.807770,104.356415 
	C224.245529,104.356415 216.871216,104.356415 208.938263,104.356415 
	C208.938263,96.665077 208.938263,89.613335 208.938263,82.464539 
	C196.650986,82.464539 184.949097,82.464539 173.148376,82.464539 
	C173.148376,86.545433 173.148376,90.283653 173.148376,94.556976 
	C180.397736,94.556976 187.347275,94.556976 195.255219,94.626862 
M236.499634,187.629990 
	C242.948151,187.629990 249.396667,187.629990 256.323547,187.629990 
	C256.323547,179.942719 256.323547,172.848022 256.323547,165.184692 
	C262.704559,165.184692 268.618591,165.184692 274.573303,165.184692 
	C274.573303,160.839340 274.573303,157.085129 274.573303,153.211212 
	C264.245605,153.211212 254.218674,153.211212 243.658768,153.211212 
	C243.658768,160.647430 243.658768,167.716980 243.658768,175.224564 
	C234.207779,175.224564 225.285156,175.224564 216.241608,175.224564 
	C216.241608,179.554199 216.241608,183.415802 216.241608,187.629761 
	C222.900528,187.629761 229.200363,187.629761 236.499634,187.629990 
M271.582123,175.152374 
	C270.138275,175.242981 268.694427,175.333588 266.776917,175.453903 
	C266.776917,183.340744 266.776917,190.907455 266.776917,198.933701 
	C259.218842,198.933701 252.147614,198.933701 244.943542,198.933701 
	C244.943542,210.918793 244.943542,222.428177 244.943542,233.839127 
	C249.047272,233.839127 252.756500,233.839127 257.008057,233.839127 
	C257.008057,226.208435 257.008057,218.980270 257.008057,211.257858 
	C264.631042,211.257858 271.700745,211.257858 278.747253,211.257858 
	C278.747253,199.018997 278.747253,187.309113 278.747253,175.152298 
	C276.441833,175.152298 274.482147,175.152298 271.582123,175.152374 
M256.240875,127.492256 
	C256.240875,119.750191 256.240875,112.008125 256.240875,104.231476 
	C251.890305,104.231476 248.310974,104.231476 244.053192,104.231476 
	C244.053192,112.193726 244.053192,119.885040 244.053192,128.020828 
	C236.303009,128.020828 229.228180,128.020828 221.968063,128.020828 
	C221.968063,139.860931 221.968063,151.232513 221.968063,162.686432 
	C226.111374,162.686432 229.969925,162.686432 234.343826,162.686432 
	C234.343826,155.076050 234.343826,147.852905 234.343826,140.033875 
	C241.892059,140.033875 248.934921,140.033875 256.240936,140.033875 
	C256.240936,135.773331 256.240936,132.130508 256.240875,127.492256 
M206.182861,129.926743 
	C202.933380,129.926743 199.683914,129.926743 195.994614,129.926743 
	C195.994614,138.280594 195.994614,145.856247 195.994614,153.927521 
	C188.466171,153.927521 181.389572,153.927521 173.860016,153.927521 
	C173.860016,163.483749 173.860016,172.534683 173.860016,181.657104 
	C177.800644,181.657104 181.537903,181.657104 185.937485,181.657104 
	C185.937485,176.446014 185.937485,171.536118 185.937485,166.068359 
	C193.812607,166.068359 201.032288,166.068359 208.688553,166.068359 
	C208.688553,154.369202 208.718323,143.256348 208.620468,132.144608 
	C208.614044,131.416183 207.630920,130.696365 206.182861,129.926743 
M153.807861,233.825119 
	C156.732559,233.825119 159.657272,233.825119 163.055542,233.825119 
	C163.055542,224.154907 163.055542,215.246231 163.055542,205.709167 
	C170.907303,205.709167 178.285004,205.709167 185.580750,205.709167 
	C185.580750,201.315735 185.580750,197.572632 185.580750,193.774841 
	C173.718124,193.774841 162.188568,193.774841 150.347656,193.774841 
	C150.347656,206.471237 150.292267,218.765701 150.458282,231.057175 
	C150.470856,231.988876 152.056168,232.899353 153.807861,233.825119 
M210.503448,210.040695 
	C217.270096,210.040695 224.036743,210.040695 230.954300,210.040695 
	C230.954300,205.666855 230.954300,201.808365 230.954300,197.548340 
	C223.181747,197.548340 215.761185,197.548340 207.752045,197.548340 
	C207.752045,192.270752 207.752045,187.379974 207.752045,182.323563 
	C203.261017,182.323563 199.368500,182.323563 195.335526,182.323563 
	C195.335526,191.625534 195.335526,200.656906 195.335526,210.040695 
	C200.258575,210.040695 204.881851,210.040695 210.503448,210.040695 
M159.345795,152.788559 
	C148.916199,152.788559 138.486618,152.788559 128.016617,152.788559 
	C128.016617,157.145721 128.016617,161.007782 128.016617,165.382675 
	C135.961014,165.382675 143.515030,165.382675 151.600327,165.382675 
	C151.600327,170.951981 151.600327,176.004272 151.600327,181.078491 
	C155.924850,181.078491 159.686844,181.078491 163.885818,181.078491 
	C163.885818,172.370682 163.997879,163.928940 163.728607,155.499374 
	C163.698608,154.560303 161.499542,153.690536 159.345795,152.788559 
z"/>
<path fill="#553C4F" opacity="1.000000" stroke="none" 
	d="
M488.644989,138.292450 
	C491.654327,143.057724 494.466003,147.517593 497.277679,151.977448 
	C497.651306,151.899551 498.024902,151.821655 498.398499,151.743774 
	C498.398499,129.805374 498.398499,107.866966 498.398499,85.579071 
	C505.499512,85.579071 511.868927,85.579071 518.516785,85.579071 
	C518.516785,117.863091 518.516785,149.919022 518.516785,182.529160 
	C511.216675,182.529160 504.088928,182.709808 496.986664,182.365051 
	C495.685638,182.301910 494.183563,180.292526 493.289154,178.860046 
	C480.854401,158.944397 468.511017,138.971710 456.138824,119.016975 
	C455.360443,117.761559 454.528442,116.539345 452.930725,114.089111 
	C452.930725,137.470642 452.930725,159.574142 452.930725,182.121704 
	C445.917999,182.121704 439.543304,182.121704 432.764404,182.121704 
	C432.764404,150.142593 432.764404,118.095741 432.764404,85.253120 
	C439.782043,85.253120 446.869965,85.071686 453.932343,85.415512 
	C455.248627,85.479591 456.773987,87.455910 457.675476,88.882912 
	C467.991791,105.213654 478.205963,121.608925 488.644989,138.292450 
z"/>
<path fill="#533A4D" opacity="1.000000" stroke="none" 
	d="
M407.341309,160.280701 
	C395.421722,179.679749 372.540253,188.196259 349.688538,181.996277 
	C328.371704,176.212738 315.352386,158.971512 314.806671,135.802887 
	C314.227478,111.212685 326.720154,91.992401 347.870239,86.326561 
	C368.020935,80.928444 387.152832,83.272026 401.548981,99.672310 
	C416.259338,116.430527 417.160797,136.032730 409.234741,156.349884 
	C408.752106,157.587036 408.095459,158.756302 407.341309,160.280701 
M338.653931,150.663742 
	C339.895264,152.430542 340.944092,154.378708 342.409637,155.934296 
	C351.087006,165.144913 361.870331,167.320847 373.559326,163.865372 
	C386.452545,160.053894 392.203217,150.204010 393.681091,137.375992 
	C395.327271,123.087120 388.261841,109.759911 376.383881,104.875336 
	C363.556091,99.600151 348.307434,103.113342 340.812073,113.841133 
	C332.878601,125.196030 333.045624,137.524048 338.653931,150.663742 
z"/>
<path fill="#533A4D" opacity="1.000000" stroke="none" 
	d="
M543.834351,122.999977 
	C543.834290,110.360863 543.834290,98.221748 543.834290,86.157074 
	C544.552979,85.784920 544.977112,85.373512 545.401306,85.373451 
	C558.383911,85.371758 571.406982,84.768738 584.340210,85.584373 
	C607.107178,87.020180 621.323303,100.205994 624.239990,122.872169 
	C625.346497,131.471237 625.024292,140.578003 623.504333,149.124542 
	C620.224670,167.565292 606.783203,180.128281 587.960388,181.684280 
	C573.606873,182.870804 559.076599,181.919968 543.834412,181.919968 
	C543.834412,162.611298 543.834412,143.055634 543.834351,122.999977 
M567.726807,103.062775 
	C564.426941,102.505325 563.952820,104.256142 563.975769,107.088570 
	C564.090027,121.221489 564.027161,135.355850 564.026672,149.489700 
	C564.026489,154.430069 564.026611,159.370438 564.026611,164.329605 
	C570.480591,164.329605 576.471130,164.860321 582.332886,164.217209 
	C593.914001,162.946548 601.073425,156.566650 602.772644,145.082001 
	C603.847595,137.816742 603.906555,130.133148 602.821838,122.876266 
	C600.986084,110.595337 592.942566,103.997177 580.646484,103.188927 
	C576.671387,102.927620 572.668335,103.092148 567.726807,103.062775 
z"/>
<path fill="#543A4E" opacity="1.000000" stroke="none" 
	d="
M684.157043,83.995407 
	C701.923645,83.606438 716.832886,88.682198 727.456238,103.111603 
	C729.663086,106.109192 731.210327,109.592392 733.316650,113.300804 
	C726.640869,115.770691 720.757935,117.947243 714.753784,120.168625 
	C714.219727,119.490814 713.744446,119.035751 713.444397,118.485207 
	C706.388550,105.540100 693.756165,99.992607 679.311157,103.516632 
	C666.232849,106.707245 658.064941,117.796425 657.815002,132.400055 
	C657.585632,145.799103 661.839294,156.692688 674.690735,162.634171 
	C689.000000,169.249603 705.249268,163.810684 712.994690,150.076874 
	C713.392761,149.371002 713.825562,148.684723 714.468567,147.611542 
	C717.664001,148.695969 720.786255,149.717255 723.880737,150.816757 
	C726.829834,151.864655 729.749939,152.994125 732.648743,154.075027 
	C726.625183,174.753601 702.499634,187.210556 677.252502,183.020889 
	C652.533813,178.918915 636.346863,158.185364 637.520996,132.129532 
	C638.787048,104.034302 655.793457,86.308525 684.157043,83.995407 
z"/>
<path fill="#553C4F" opacity="1.000000" stroke="none" 
	d="
M350.524719,230.432983 
	C351.932098,227.403656 352.620453,223.027084 354.534241,222.401962 
	C358.462555,221.118744 363.050568,221.728699 367.359222,221.845718 
	C368.191437,221.868317 369.392792,223.043213 369.741638,223.949249 
	C377.211975,243.351471 384.584991,262.791168 392.456055,283.483276 
	C386.677673,283.483276 381.634216,283.844269 376.713623,283.226624 
	C375.500458,283.074371 374.363251,279.834595 373.763062,277.841919 
	C372.773895,274.557861 370.930389,273.491852 367.538177,273.723206 
	C362.726257,274.051392 357.859589,273.612457 353.054993,273.991547 
	C351.512939,274.113159 349.080048,275.547852 348.787445,276.789978 
	C347.266266,283.247772 343.096771,284.536896 337.326050,283.757904 
	C335.268616,283.480133 333.142181,283.713409 329.814514,283.713409 
	C336.935516,265.368530 343.647949,248.076187 350.524719,230.432983 
M367.377960,259.187744 
	C365.415436,253.485306 363.452911,247.782883 361.490387,242.080444 
	C361.137787,242.090332 360.785217,242.100204 360.432617,242.110092 
	C358.312683,248.258240 356.192719,254.406403 353.621735,261.862640 
	C358.997101,261.136353 363.320251,260.552216 367.377960,259.187744 
z"/>
<path fill="#543A4E" opacity="1.000000" stroke="none" 
	d="
M448.423676,242.281281 
	C448.041748,255.736023 440.848816,262.699280 426.303558,263.865051 
	C422.533722,264.167175 418.719147,263.910461 414.257172,263.910461 
	C414.257172,269.417511 414.060059,274.362701 414.322845,279.283356 
	C414.514740,282.876221 413.114197,283.772247 409.711121,283.779663 
	C398.936432,283.803101 398.936859,283.930511 398.936890,273.001617 
	C398.936890,257.528259 399.033783,242.053833 398.864166,226.582336 
	C398.824677,222.979889 399.701569,221.533371 403.569183,221.682495 
	C411.378143,221.983566 419.216888,221.562119 427.021271,221.920364 
	C439.845062,222.509018 446.748230,229.143173 448.423676,242.281281 
M422.270294,250.663788 
	C423.752136,250.519196 425.235565,250.389404 426.715485,250.227142 
	C430.597839,249.801483 433.461365,248.035858 433.659668,243.837128 
	C433.868866,239.407974 431.483032,236.484192 427.134644,235.857117 
	C423.001373,235.261093 418.777252,235.295135 414.426117,235.042435 
	C414.426117,240.585892 414.426117,245.169861 414.426117,250.232590 
	C416.869904,250.389420 419.129333,250.534409 422.270294,250.663788 
z"/>
<path fill="#533A4D" opacity="1.000000" stroke="none" 
	d="
M462.087708,221.764252 
	C469.895294,221.791122 477.214813,221.665543 484.523529,221.890457 
	C491.041443,222.091034 496.948730,223.989578 501.337524,229.264618 
	C511.680267,241.695984 505.964874,259.164856 490.063446,262.775116 
	C484.462921,264.046661 478.568481,264.023376 472.003479,264.670654 
	C472.003479,269.433167 471.886841,274.514069 472.048248,279.586090 
	C472.141479,282.514923 471.245758,283.899261 468.108582,283.740417 
	C464.504181,283.557922 460.883392,283.698059 457.035156,283.698059 
	C457.035156,262.831299 457.035156,242.631058 457.035156,222.092728 
	C458.719025,221.971451 460.156982,221.867874 462.087708,221.764252 
M471.969391,238.748260 
	C471.969391,242.501312 471.969391,246.254349 471.969391,250.827133 
	C477.131470,250.506287 481.618896,250.637161 485.940552,249.853760 
	C491.196350,248.901016 493.021545,242.767319 489.672729,238.534500 
	C487.137939,235.330566 475.651367,233.558533 472.407379,235.961029 
	C472.017517,236.249725 472.106964,237.185638 471.969391,238.748260 
z"/>
<path fill="#543B4E" opacity="1.000000" stroke="none" 
	d="
M244.980164,246.496094 
	C249.114853,246.496262 252.753784,246.496262 256.759521,246.496262 
	C256.759521,250.661636 256.759521,254.513641 256.759521,258.646057 
	C245.063370,258.646057 233.490005,258.646057 221.303314,258.646057 
	C221.303314,249.802444 221.303314,240.928131 221.303314,231.549591 
	C213.491058,231.549591 206.269531,231.549591 198.630890,231.549591 
	C198.630890,227.194763 198.630890,223.350815 198.630890,219.217865 
	C210.145874,219.217865 221.534027,219.217865 233.352814,219.217865 
	C233.352814,228.109756 233.352814,236.877533 233.352814,246.495941 
	C237.337051,246.495941 240.910736,246.495941 244.980164,246.496094 
z"/>
<path fill="#573F52" opacity="1.000000" stroke="none" 
	d="
M93.052109,165.229797 
	C92.610535,172.923996 92.610535,180.366653 92.610535,188.198502 
	C88.173721,188.198502 84.453087,188.198502 80.349396,188.198502 
	C80.349396,176.402542 80.349396,164.575516 80.349396,152.273346 
	C87.916107,152.273346 95.325752,152.273346 103.215439,152.273346 
	C103.215439,144.582336 103.215439,137.348312 103.215439,129.747162 
	C107.587265,129.747162 111.470169,129.747162 115.653404,129.747162 
	C115.653404,141.259872 115.653404,152.660233 115.653404,164.978256 
	C108.307045,164.978256 100.900368,164.978256 93.052109,165.229797 
z"/>
<path fill="#594053" opacity="1.000000" stroke="none" 
	d="
M172.013824,109.283859 
	C176.479736,109.283913 180.450546,109.283913 184.770798,109.283913 
	C184.770798,121.514473 184.770798,133.375824 184.770798,145.469452 
	C180.851944,145.469452 177.108826,145.469452 172.862137,145.469452 
	C172.862137,137.616562 172.862137,130.013748 172.862137,121.914604 
	C165.275024,121.914604 158.178925,121.914604 150.741699,121.914604 
	C150.741699,109.992142 150.741699,98.577080 150.741699,86.727005 
	C154.581940,86.727005 158.436508,86.727005 162.780548,86.727005 
	C162.780548,94.085297 162.780548,101.333336 162.780548,109.283798 
	C165.995331,109.283798 168.757034,109.283798 172.013824,109.283859 
z"/>
<path fill="#563E51" opacity="1.000000" stroke="none" 
	d="
M116.016098,176.126953 
	C125.165352,176.126984 133.817215,176.126984 142.894806,176.126984 
	C142.894806,180.232361 142.894806,184.083847 142.894806,188.362732 
	C134.073654,188.362732 125.305740,188.362732 115.974579,188.362732 
	C115.974579,196.002365 115.974579,203.248825 115.974579,210.733521 
	C105.174675,210.733521 94.942955,210.733521 84.404343,210.733521 
	C84.404343,206.720169 84.404343,202.958954 84.404343,198.628662 
	C90.478050,198.628662 96.558289,198.628662 103.196991,198.628662 
	C103.196991,191.014206 103.196991,183.940613 103.196991,176.126907 
	C107.666687,176.126907 111.592697,176.126907 116.016098,176.126953 
z"/>
<path fill="#553C4F" opacity="1.000000" stroke="none" 
	d="
M137.376251,227.848434 
	C137.376007,230.636047 137.376007,232.944229 137.376007,235.661865 
	C129.913376,235.661865 122.836449,235.661865 115.175224,235.661865 
	C115.175224,243.762360 115.175224,251.483414 115.175224,259.518616 
	C110.849724,259.518616 107.102371,259.518616 102.941757,259.518616 
	C102.941757,247.772797 102.941757,236.049911 102.941757,223.660828 
	C110.049400,223.660828 117.256447,223.660828 124.940491,223.660828 
	C124.940491,215.765213 124.940491,208.517990 124.940491,201.014404 
	C129.178604,201.014404 132.929214,201.014404 137.376495,201.014404 
	C137.376495,209.864166 137.376495,218.616592 137.376251,227.848434 
z"/>
<path fill="#553C4F" opacity="1.000000" stroke="none" 
	d="
M199.942490,241.938904 
	C202.909836,241.938904 205.389343,241.938904 208.280350,241.938904 
	C208.280350,253.756775 208.280350,265.262878 208.280350,277.089600 
	C204.277283,277.089600 200.385345,277.089600 196.094177,277.089600 
	C196.094177,269.526306 196.094177,262.260132 196.094177,254.475830 
	C188.654053,254.475830 181.595871,254.475830 174.205750,254.475830 
	C174.205750,242.247375 174.205750,230.539810 174.205750,218.461304 
	C177.926880,218.461304 181.649979,218.461304 185.827271,218.461304 
	C185.827271,225.962418 185.827271,233.535477 185.827271,241.938919 
	C190.640167,241.938919 195.047409,241.938919 199.942490,241.938904 
z"/>
<path fill="#543A4E" opacity="1.000000" stroke="none" 
	d="
M101.774910,108.136642 
	C102.640800,106.738205 103.490234,105.038940 104.367645,105.024376 
	C115.310852,104.842697 126.258125,104.905464 137.709351,104.905464 
	C137.709351,113.902519 137.709351,122.481903 137.709351,131.718246 
	C145.554901,131.718246 152.926132,131.718246 160.614258,131.718246 
	C160.614258,136.102341 160.614258,139.828201 160.614258,143.885010 
	C149.199417,143.885010 137.815628,143.885010 125.833313,143.885010 
	C125.833313,135.222656 125.833313,126.516396 125.833313,117.326248 
	C117.685883,117.326248 110.118423,117.326248 101.771454,117.326248 
	C101.771454,114.109947 101.771454,111.364334 101.774910,108.136642 
z"/>
<path fill="#563D50" opacity="1.000000" stroke="none" 
	d="
M149.988022,272.952881 
	C149.988037,268.308014 149.988037,264.152527 149.988037,259.304321 
	C142.393478,259.304321 135.017685,259.304321 127.364655,259.304321 
	C127.364655,255.019608 127.364655,251.417725 127.364655,247.365005 
	C138.837997,247.365005 150.355133,247.365005 162.428802,247.365005 
	C162.428802,254.487473 162.428802,261.567963 162.428802,269.050293 
	C170.400192,269.050293 177.836044,269.050293 185.676727,269.050293 
	C185.676727,273.333466 185.676727,277.212982 185.676727,281.414001 
	C174.016602,281.414001 162.289429,281.414001 149.988007,281.414001 
	C149.988007,278.657196 149.988007,276.049744 149.988022,272.952881 
z"/>
<path fill="#543B4E" opacity="1.000000" stroke="none" 
	d="
M194.776031,94.591919 
	C187.347275,94.556976 180.397736,94.556976 173.148376,94.556976 
	C173.148376,90.283653 173.148376,86.545433 173.148376,82.464539 
	C184.949097,82.464539 196.650986,82.464539 208.938263,82.464539 
	C208.938263,89.613335 208.938263,96.665077 208.938263,104.356415 
	C216.871216,104.356415 224.245529,104.356415 231.807770,104.356415 
	C231.807770,108.773590 231.807770,112.537605 231.807770,116.613083 
	C220.273117,116.613083 208.895142,116.613083 196.792206,116.613083 
	C196.792206,110.852959 196.901154,105.106384 196.721756,99.368820 
	C196.671906,97.774437 195.767548,96.206779 194.776031,94.591919 
z"/>
<path fill="#563E51" opacity="1.000000" stroke="none" 
	d="
M235.999908,187.629883 
	C229.200363,187.629761 222.900528,187.629761 216.241608,187.629761 
	C216.241608,183.415802 216.241608,179.554199 216.241608,175.224564 
	C225.285156,175.224564 234.207779,175.224564 243.658768,175.224564 
	C243.658768,167.716980 243.658768,160.647430 243.658768,153.211212 
	C254.218674,153.211212 264.245605,153.211212 274.573303,153.211212 
	C274.573303,157.085129 274.573303,160.839340 274.573303,165.184692 
	C268.618591,165.184692 262.704559,165.184692 256.323547,165.184692 
	C256.323547,172.848022 256.323547,179.942719 256.323547,187.629990 
	C249.396667,187.629990 242.948151,187.629990 235.999908,187.629883 
z"/>
<path fill="#533A4D" opacity="1.000000" stroke="none" 
	d="
M272.052307,175.152344 
	C274.482147,175.152298 276.441833,175.152298 278.747253,175.152298 
	C278.747253,187.309113 278.747253,199.018997 278.747253,211.257858 
	C271.700745,211.257858 264.631042,211.257858 257.008057,211.257858 
	C257.008057,218.980270 257.008057,226.208435 257.008057,233.839127 
	C252.756500,233.839127 249.047272,233.839127 244.943542,233.839127 
	C244.943542,222.428177 244.943542,210.918793 244.943542,198.933701 
	C252.147614,198.933701 259.218842,198.933701 266.776917,198.933701 
	C266.776917,190.907455 266.776917,183.340744 266.776917,175.453903 
	C268.694427,175.333588 270.138275,175.242981 272.052307,175.152344 
z"/>
<path fill="#533A4D" opacity="1.000000" stroke="none" 
	d="
M256.240906,127.989975 
	C256.240936,132.130508 256.240936,135.773331 256.240936,140.033875 
	C248.934921,140.033875 241.892059,140.033875 234.343826,140.033875 
	C234.343826,147.852905 234.343826,155.076050 234.343826,162.686432 
	C229.969925,162.686432 226.111374,162.686432 221.968063,162.686432 
	C221.968063,151.232513 221.968063,139.860931 221.968063,128.020828 
	C229.228180,128.020828 236.303009,128.020828 244.053192,128.020828 
	C244.053192,119.885040 244.053192,112.193726 244.053192,104.231476 
	C248.310974,104.231476 251.890305,104.231476 256.240875,104.231476 
	C256.240875,112.008125 256.240875,119.750191 256.240906,127.989975 
z"/>
<path fill="#563E51" opacity="1.000000" stroke="none" 
	d="
M206.642487,129.949646 
	C207.630920,130.696365 208.614044,131.416183 208.620468,132.144608 
	C208.718323,143.256348 208.688553,154.369202 208.688553,166.068359 
	C201.032288,166.068359 193.812607,166.068359 185.937485,166.068359 
	C185.937485,171.536118 185.937485,176.446014 185.937485,181.657104 
	C181.537903,181.657104 177.800644,181.657104 173.860016,181.657104 
	C173.860016,172.534683 173.860016,163.483749 173.860016,153.927521 
	C181.389572,153.927521 188.466171,153.927521 195.994614,153.927521 
	C195.994614,145.856247 195.994614,138.280594 195.994614,129.926743 
	C199.683914,129.926743 202.933380,129.926743 206.642487,129.949646 
z"/>
<path fill="#5C4356" opacity="1.000000" stroke="none" 
	d="
M153.359131,233.822403 
	C152.056168,232.899353 150.470856,231.988876 150.458282,231.057175 
	C150.292267,218.765701 150.347656,206.471237 150.347656,193.774841 
	C162.188568,193.774841 173.718124,193.774841 185.580750,193.774841 
	C185.580750,197.572632 185.580750,201.315735 185.580750,205.709167 
	C178.285004,205.709167 170.907303,205.709167 163.055542,205.709167 
	C163.055542,215.246231 163.055542,224.154907 163.055542,233.825119 
	C159.657272,233.825119 156.732559,233.825119 153.359131,233.822403 
z"/>
<path fill="#543B4E" opacity="1.000000" stroke="none" 
	d="
M210.004288,210.040695 
	C204.881851,210.040695 200.258575,210.040695 195.335526,210.040695 
	C195.335526,200.656906 195.335526,191.625534 195.335526,182.323563 
	C199.368500,182.323563 203.261017,182.323563 207.752045,182.323563 
	C207.752045,187.379974 207.752045,192.270752 207.752045,197.548340 
	C215.761185,197.548340 223.181747,197.548340 230.954300,197.548340 
	C230.954300,201.808365 230.954300,205.666855 230.954300,210.040695 
	C224.036743,210.040695 217.270096,210.040695 210.004288,210.040695 
z"/>
<path fill="#553C4F" opacity="1.000000" stroke="none" 
	d="
M159.826111,152.788589 
	C161.499542,153.690536 163.698608,154.560303 163.728607,155.499374 
	C163.997879,163.928940 163.885818,172.370682 163.885818,181.078491 
	C159.686844,181.078491 155.924850,181.078491 151.600327,181.078491 
	C151.600327,176.004272 151.600327,170.951981 151.600327,165.382675 
	C143.515030,165.382675 135.961014,165.382675 128.016617,165.382675 
	C128.016617,161.007782 128.016617,157.145721 128.016617,152.788559 
	C138.486618,152.788559 148.916199,152.788559 159.826111,152.788589 
z"/>
<path fill="#FDFDFD" opacity="1.000000" stroke="none" 
	d="
M338.465546,150.336243 
	C333.045624,137.524048 332.878601,125.196030 340.812073,113.841133 
	C348.307434,103.113342 363.556091,99.600151 376.383881,104.875336 
	C388.261841,109.759911 395.327271,123.087120 393.681091,137.375992 
	C392.203217,150.204010 386.452545,160.053894 373.559326,163.865372 
	C361.870331,167.320847 351.087006,165.144913 342.409637,155.934296 
	C340.944092,154.378708 339.895264,152.430542 338.465546,150.336243 
z"/>
<path fill="#FDFCFD" opacity="1.000000" stroke="none" 
	d="
M568.202393,103.062332 
	C572.668335,103.092148 576.671387,102.927620 580.646484,103.188927 
	C592.942566,103.997177 600.986084,110.595337 602.821838,122.876266 
	C603.906555,130.133148 603.847595,137.816742 602.772644,145.082001 
	C601.073425,156.566650 593.914001,162.946548 582.332886,164.217209 
	C576.471130,164.860321 570.480591,164.329605 564.026611,164.329605 
	C564.026611,159.370438 564.026489,154.430069 564.026672,149.489700 
	C564.027161,135.355850 564.090027,121.221489 563.975769,107.088570 
	C563.952820,104.256142 564.426941,102.505325 568.202393,103.062332 
z"/>
<path fill="#F4F2F4" opacity="1.000000" stroke="none" 
	d="
M367.510681,259.577942 
	C363.320251,260.552216 358.997101,261.136353 353.621735,261.862640 
	C356.192719,254.406403 358.312683,248.258240 360.432617,242.110092 
	C360.785217,242.100204 361.137787,242.090332 361.490387,242.080444 
	C363.452911,247.782883 365.415436,253.485306 367.510681,259.577942 
z"/>
<path fill="#F4F2F4" opacity="1.000000" stroke="none" 
	d="
M421.829529,250.671600 
	C419.129333,250.534409 416.869904,250.389420 414.426117,250.232590 
	C414.426117,245.169861 414.426117,240.585892 414.426117,235.042435 
	C418.777252,235.295135 423.001373,235.261093 427.134644,235.857117 
	C431.483032,236.484192 433.868866,239.407974 433.659668,243.837128 
	C433.461365,248.035858 430.597839,249.801483 426.715485,250.227142 
	C425.235565,250.389404 423.752136,250.519196 421.829529,250.671600 
z"/>
<path fill="#F6F5F6" opacity="1.000000" stroke="none" 
	d="
M471.971802,238.284912 
	C472.106964,237.185638 472.017517,236.249725 472.407379,235.961029 
	C475.651367,233.558533 487.137939,235.330566 489.672729,238.534500 
	C493.021545,242.767319 491.196350,248.901016 485.940552,249.853760 
	C481.618896,250.637161 477.131470,250.506287 471.969391,250.827133 
	C471.969391,246.254349 471.969391,242.501312 471.971802,238.284912 
z"/>
</svg>