<svg version="1.0" xmlns="http://www.w3.org/2000/svg"
 width="1200.000000pt" height="300.000000pt" viewBox="0 0 1200.000000 300.000000"
 preserveAspectRatio="xMidYMid meet">
 <style>
    .large {
      font: 150px Arial, Helvetica, sans-serif;
      font-weight: bold;
    }
  </style>
<g transform="translate(0.000000,300.000000) scale(0.100000,-0.100000)"
fill="currentColor" stroke="none">
<path d="M0 1500 l0 -1500 1500 0 1500 0 0 1500 0 1500 -1500 0 -1500 0 0
-1500z m1676 766 c135 -36 305 -117 356 -170 21 -23 63 -66 92 -96 63 -64 76
-87 76 -131 0 -22 13 -48 42 -86 37 -48 41 -60 40 -105 0 -28 6 -64 14 -79 19
-37 18 -83 -2 -122 -14 -27 -15 -38 -4 -79 13 -52 2 -105 -26 -128 -7 -7 -14
-29 -14 -49 0 -43 -23 -83 -78 -135 -24 -23 -43 -51 -46 -70 -7 -37 -52 -87
-111 -124 -22 -14 -62 -42 -90 -63 -102 -77 -243 -112 -445 -111 -151 0 -259
22 -337 68 -58 33 -147 113 -149 133 -3 18 -124 134 -132 126 -10 -9 33 -59
81 -95 47 -35 56 -51 17 -30 -42 22 -103 85 -121 125 -11 22 -35 60 -54 84
-32 39 -36 49 -34 97 2 38 -2 59 -14 72 -34 37 -48 90 -37 132 7 28 8 46 0 59
-18 34 -12 94 14 131 20 30 23 43 18 92 -4 55 -3 60 32 105 20 25 36 56 36 67
0 33 35 83 82 116 24 17 61 54 83 83 23 28 64 66 93 83 45 27 219 95 277 107
49 11 293 6 341 -7z"/>
<path d="M1365 2255 c-110 -21 -123 -27 -267 -123 -108 -72 -132 -93 -157
-136 -16 -28 -52 -73 -80 -101 -48 -46 -51 -52 -51 -100 0 -35 -8 -63 -25 -93
-20 -34 -23 -51 -18 -90 4 -36 0 -60 -16 -97 l-21 -50 25 -49 c16 -33 25 -66
25 -98 0 -35 7 -60 26 -89 14 -23 31 -66 37 -97 9 -43 19 -63 42 -81 16 -14
66 -60 109 -104 64 -63 99 -88 177 -128 209 -104 342 -114 566 -39 126 41 208
85 232 123 12 19 50 61 84 94 45 42 66 70 75 101 7 23 32 66 56 95 42 51 42
54 38 113 -3 45 0 70 13 94 15 29 16 40 5 86 -11 44 -10 59 3 98 l16 46 -35
57 c-23 39 -34 69 -34 96 0 31 -8 48 -36 80 -20 22 -49 68 -65 103 -28 61 -33
66 -141 136 -175 114 -181 117 -264 138 -107 28 -221 33 -319 15z m105 -359
l0 -83 -29 -6 c-38 -8 -95 -58 -126 -111 -13 -22 -29 -71 -36 -108 -24 -132
35 -268 138 -318 l52 -25 1 -79 0 -79 -52 6 c-166 20 -322 187 -348 373 -15
108 9 225 63 310 30 48 122 136 165 158 34 17 125 44 155 45 15 1 17 -9 17
-83z m141 65 c80 -25 157 -79 208 -144 40 -52 68 -104 60 -111 -2 -2 -41 -22
-86 -44 l-81 -41 -26 53 c-30 61 -92 123 -133 132 -16 3 -34 7 -40 10 -9 2
-13 28 -13 84 0 78 1 80 24 80 13 0 52 -9 87 -19z m179 -591 l80 -40 -16 -32
c-27 -52 -124 -142 -185 -172 -31 -15 -82 -30 -113 -33 l-56 -6 0 77 c0 64 3
78 18 82 63 20 99 44 134 87 21 27 38 55 38 63 0 21 13 18 100 -26z"/>
<path d="M1064 2151 c-33 -21 -64 -46 -68 -56 -6 -17 -5 -17 21 0 27 17 98 70
118 87 25 22 -16 4 -71 -31z"/>
<path d="M1941 2124 c100 -71 128 -82 72 -29 -26 25 -113 75 -130 75 -4 0 22
-21 58 -46z"/>
<path d="M873 1973 c-45 -44 -73 -93 -53 -93 10 0 85 82 100 109 21 39 4 33
-47 -16z"/>
<path d="M2106 1968 c14 -47 68 -118 79 -107 2 2 -3 21 -10 42 -21 60 -87 122
-69 65z"/>
<path d="M773 1807 c-27 -35 -37 -76 -24 -108 9 -23 10 -22 31 24 12 26 20 62
18 80 l-3 32 -22 -28z"/>
<path d="M2200 1782 c0 -24 49 -122 61 -122 18 0 9 54 -16 97 -27 45 -45 55
-45 25z"/>
<path d="M722 1599 c-21 -45 -22 -109 -1 -109 14 0 31 72 27 115 l-4 40 -22
-46z"/>
<path d="M2261 1587 c-13 -34 -14 -96 -1 -117 7 -12 12 -7 25 22 18 45 18 54
1 93 l-14 30 -11 -28z"/>
<path d="M714 1426 c-9 -24 4 -82 26 -108 16 -21 19 -21 25 -6 7 19 -21 114
-36 124 -5 3 -12 -2 -15 -10z"/>
<path d="M2253 1405 c-17 -33 -25 -81 -17 -110 l7 -28 19 22 c19 24 23 79 9
116 -8 19 -8 19 -18 0z"/>
<path d="M770 1215 c0 -39 19 -84 44 -104 14 -12 16 -10 16 10 0 24 -44 129
-55 129 -3 0 -5 -16 -5 -35z"/>
<path d="M2193 1184 c-53 -67 -69 -131 -23 -89 33 30 62 83 58 107 -3 20 -6
19 -35 -18z"/>
<path d="M2046 969 c-57 -61 -66 -80 -28 -60 42 23 114 121 88 121 -2 0 -29
-28 -60 -61z"/>
<path d="M1115 825 c28 -23 95 -57 105 -53 4 2 -22 18 -58 36 -37 18 -58 26
-47 17z"/>
<path d="M1815 794 c-27 -13 -39 -21 -25 -18 29 7 100 43 85 43 -5 0 -32 -12
-60 -25z"/>
</g>  
<text x="350" y="200" class="large" >Collabwrite</text>
</svg>
